#N canvas 811 255 450 300 12;
#X obj 27 157 cos~;
#X obj 27 77 wrap~;
#X obj 27 11 inlet~;
#X obj 27 190 outlet~;
#X obj 172 12 inlet;
#X obj 253 13 loadbang;
#X obj 27 110 expr~ if($v1<$f2 \, $v1*0.5/$f2 \, 0.5+($v1-$f2)*0.5/(1-$f2)), f 30;
#X obj 172 58 float \$1;
#X obj 27 44 +~ 0;
#X obj 357 14 inlet;
#X obj 357 59 float \$2;
#X text 150 249 pdsaw~ SHAPE OFFSET;
#X obj 98 25 / 2;
#X connect 0 0 3 0;
#X connect 1 0 6 0;
#X connect 2 0 8 0;
#X connect 4 0 7 0;
#X connect 5 0 10 0;
#X connect 5 0 7 0;
#X connect 6 0 0 0;
#X connect 7 0 6 1;
#X connect 7 0 12 0;
#X connect 8 0 1 0;
#X connect 9 0 10 0;
#X connect 12 0 8 1;
