#N canvas 354 39 935 795 12;
#X obj 13 439 vol~;
#X obj 72 494 *~ -0.5;
#X obj 72 518 dac~;
#X obj 67 244 vzphasor~;
#X msg 109 144 131;
#X obj 67 273 vzshaper~ 0;
#X obj 206 243 vzphasor~;
#X obj 206 272 vzshaper~ 0;
#X obj 186 67 loadbang;
#X obj 295 458 loadbang;
#X obj 295 520 tabwrite~ \$0-scope;
#X obj 295 489 metro 100;
#X obj 232 440 *~ 0.6;
#N canvas 0 22 450 278 (subpatch) 0;
#X array \$0-scope 2000 float 0;
#A color 0;
#A width 1;
#X coords 0 1 1999 -1 200 140 1;
#X restore 470 436 graph;
#X obj 67 388 hip~ 10;
#X obj 206 204 * 5;
#X msg 32 138 50;
#X floatatom 163 394 5 0 0 0 - - - 0;
#X msg 401 138 0;
#X msg 417 193 5;
#X obj 69 303 *~;
#X obj 53 198 * 1;
#X msg 187 103 0;
#X obj 318 56 hsl 162 19 0 1 0 0 empty empty empty -2 -10 0 12 #fcfcfc #000000 #000000 0 1;
#X floatatom 315 80 5 0 0 0 - - - 0;
#X obj 206 296 *~ -1;
#X obj 67 336 +~;
#X obj 67 360 +~;
#X connect 0 0 1 0;
#X connect 1 0 2 0;
#X connect 1 0 2 1;
#X connect 3 0 5 0;
#X connect 4 0 15 0;
#X connect 4 0 21 0;
#X connect 5 0 20 0;
#X connect 6 0 7 0;
#X connect 7 0 25 0;
#X connect 8 0 22 0;
#X connect 8 0 16 0;
#X connect 9 0 11 0;
#X connect 11 0 10 0;
#X connect 12 0 10 0;
#X connect 14 0 12 0;
#X connect 14 0 0 0;
#X connect 15 0 6 0;
#X connect 16 0 15 0;
#X connect 16 0 21 0;
#X connect 17 0 14 1;
#X connect 18 0 7 1;
#X connect 18 0 5 1;
#X connect 19 0 7 1;
#X connect 19 0 5 1;
#X connect 20 0 26 0;
#X connect 21 0 3 0;
#X connect 22 0 3 1;
#X connect 23 0 22 0;
#X connect 23 0 24 0;
#X connect 24 0 6 1;
#X connect 25 0 20 1;
#X connect 26 0 27 0;
#X connect 27 0 14 0;
