#N canvas 354 39 935 795 12;
#X obj 77 519 vol~;
#X obj 77 575 *~ -0.5;
#X obj 77 612 dac~;
#X obj 31 28 loadbang;
#X obj 388 480 loadbang;
#X obj 388 542 tabwrite~ \$0-scope;
#X obj 388 512 metro 100;
#N canvas 0 22 450 278 (subpatch) 0;
#X array \$0-scope 2000 float 0;
#A color 0;
#A width 1;
#X coords 0 1 1999 -1 200 140 1;
#X restore 577 428 graph;
#X obj 77 482 hip~ 10;
#X msg 32 138 50;
#X obj 248 308 vzringosc~;
#X obj 69 309 vzosc~;
#X msg 85 138 100;
#X msg 349 138 1;
#X msg 391 138 2;
#X msg 133 138 130.6;
#X msg 433 138 5.003;
#X obj 71 400 vol~;
#X obj 326 512 *~ 0.4;
#X obj 69 195 t f b;
#X msg 241 138 0.2001;
#X msg 309 138 0.5;
#X text 243 104 M1 frequency multiplier;
#X text 48 104 M2 frequency;
#X msg 127 249 0;
#X msg 126 276 5;
#X text 110 229 M2 shape;
#X msg 359 243 0;
#X msg 358 271 5;
#X text 356 219 M1 shape;
#X obj 248 332 vol~;
#X floatatom 241 176 8 0 0 0 - - - 0;
#X obj 491 104 loadbang;
#X obj 242 235 *;
#X floatatom 69 169 5 0 0 0 - - - 0;
#X obj 241 199 t f b;
#X text 447 336 volume of M1*M2;
#X text 267 401 volume of M2 parallel to M1*M2, f 16;
#X connect 0 0 1 0;
#X connect 1 0 2 0;
#X connect 1 0 2 1;
#X connect 3 0 9 0;
#X connect 4 0 6 0;
#X connect 6 0 5 0;
#X connect 8 0 18 0;
#X connect 8 0 0 0;
#X connect 9 0 34 0;
#X connect 10 0 30 0;
#X connect 11 0 17 0;
#X connect 12 0 34 0;
#X connect 13 0 31 0;
#X connect 14 0 31 0;
#X connect 15 0 34 0;
#X connect 16 0 31 0;
#X connect 17 0 8 0;
#X connect 18 0 5 0;
#X connect 19 0 11 0;
#X connect 19 0 33 0;
#X connect 19 1 11 2;
#X connect 19 1 10 2;
#X connect 20 0 31 0;
#X connect 21 0 31 0;
#X connect 24 0 11 1;
#X connect 25 0 11 1;
#X connect 27 0 10 1;
#X connect 28 0 10 1;
#X connect 30 0 17 1;
#X connect 31 0 35 0;
#X connect 32 0 13 0;
#X connect 33 0 10 0;
#X connect 34 0 19 0;
#X connect 35 0 33 1;
#X connect 35 1 34 0;
