#N canvas 354 39 935 795 12;
#X obj 13 439 vol~;
#X obj 72 494 *~ -0.5;
#X obj 72 518 dac~;
#X msg 109 144 131;
#X obj 186 67 loadbang;
#X obj 295 458 loadbang;
#X obj 295 520 tabwrite~ \$0-scope;
#X obj 295 489 metro 100;
#X obj 232 440 *~ 0.6;
#N canvas 0 22 450 278 (subpatch) 0;
#X array \$0-scope 2000 float 0;
#A color 0;
#A width 1;
#X coords 0 1 1999 -1 200 140 1;
#X restore 470 436 graph;
#X obj 67 388 hip~ 10;
#X msg 32 138 50;
#X floatatom 163 394 5 0 0 0 - - - 0;
#X msg 401 138 0;
#X msg 417 193 5;
#X msg 187 103 0;
#X msg 187 127 0.75;
#X obj 210 267 vzringosc~;
#X obj 64 253 vzosc~;
#X obj 66 327 *~;
#X obj 317 74 bng 19 250 50 0 empty empty empty 0 -10 0 12 #fcfcfc #000000 #000000;
#X obj 53 198 * 1;
#X obj 206 204 * 5;
#X connect 0 0 1 0;
#X connect 1 0 2 0;
#X connect 1 0 2 1;
#X connect 3 0 21 0;
#X connect 3 0 22 0;
#X connect 4 0 15 0;
#X connect 4 0 11 0;
#X connect 5 0 7 0;
#X connect 7 0 6 0;
#X connect 8 0 6 0;
#X connect 10 0 8 0;
#X connect 10 0 0 0;
#X connect 11 0 21 0;
#X connect 11 0 22 0;
#X connect 12 0 10 1;
#X connect 13 0 17 1;
#X connect 13 0 18 1;
#X connect 14 0 17 1;
#X connect 14 0 18 1;
#X connect 15 0 16 0;
#X connect 17 0 19 1;
#X connect 18 0 19 0;
#X connect 19 0 10 0;
#X connect 20 0 17 2;
#X connect 20 0 18 2;
#X connect 21 0 18 0;
#X connect 22 0 17 0;
