#N canvas 189 168 1161 780 12;
#X obj 78 554 *~ 0.5;
#X obj 76 588 dac~;
#X obj 78 509 vol~;
#X msg 309 79 0.5;
#X obj 430 139 loadbang;
#X obj 430 201 tabwrite~ \$0-scope;
#N canvas 159 167 648 535 (subpatch) 0;
#X array \$0-scope 2000 float 0;
#A color 0;
#A width 1;
#X coords 0 1 1999 -1 200 140 1;
#X restore 386 255 graph;
#X obj 430 170 metro 100;
#X obj 341 215 *~ 0.6;
#X obj 80 339 sin~;
#X floatatom 225 470 5 0 0 0 - - - 0;
#X obj 79 466 hip~ 10;
#X msg 581 79 0.025;
#X msg 528 79 0.055;
#X msg 466 79 0.11;
#X msg 417 79 0.185;
#X msg 364 79 0.29;
#X obj 84 245 vol~ 5;
#X obj 84 288 *~ 2;
#X msg 76 63 50;
#X msg 157 74 131;
#X obj 83 124 phasor~ 0;
#X text 309 53 sine;
#X text 364 53 saw1;
#X text 417 53 saw2;
#X text 466 53 saw3;
#X text 528 53 saw4;
#X text 581 53 saw5;
#X obj 84 221 pdsaw~;
#X obj 177 12 loadbang;
#X floatatom 245 196 5 0 0 0 - - - 0;
#X msg 191 108 0.75;
#X connect 0 0 1 0;
#X connect 0 0 1 1;
#X connect 2 0 0 0;
#X connect 3 0 28 1;
#X connect 4 0 7 0;
#X connect 7 0 5 0;
#X connect 8 0 5 0;
#X connect 9 0 11 0;
#X connect 10 0 11 1;
#X connect 11 0 8 0;
#X connect 11 0 2 0;
#X connect 12 0 28 1;
#X connect 13 0 28 1;
#X connect 14 0 28 1;
#X connect 15 0 28 1;
#X connect 16 0 28 1;
#X connect 17 0 18 0;
#X connect 18 0 9 0;
#X connect 19 0 21 0;
#X connect 20 0 21 0;
#X connect 21 0 28 0;
#X connect 28 0 17 0;
#X connect 29 0 19 0;
#X connect 29 0 3 0;
#X connect 29 0 31 0;
#X connect 30 0 28 2;
#X connect 31 0 28 2;
