#N canvas 150 175 1161 780 12;
#X obj 84 247 *~ 0.5;
#X obj 82 281 dac~;
#X obj 82 172 cos~;
#X obj 84 202 vol~;
#X obj 83 86 wrap~;
#X msg 312 21 0.5;
#X msg 363 21 0.4;
#X msg 418 19 0.3;
#X msg 467 20 0.2;
#X msg 509 20 0.1;
#X msg 561 19 0.01;
#X obj 209 9 loadbang;
#X obj 83 110 expr~ if($v1<$f2 \, $v1*0.5/$f2 \, 0.5+($v1-$f2)*0.5/(1-$f2)), f 30;
#X obj 430 81 loadbang;
#X obj 430 143 tabwrite~ \$0-scope;
#N canvas 159 167 648 535 (subpatch) 0;
#X array \$0-scope 2000 float 0;
#A color 0;
#A width 1;
#X coords 0 1 1999 -1 200 140 1;
#X restore 386 197 graph;
#X obj 430 112 metro 100;
#X obj 354 111 *~ 0.6;
#X obj 83 53 +~ 0.1;
#X obj 83 27 phasor~ 100;
#X connect 0 0 1 0;
#X connect 0 0 1 1;
#X connect 2 0 3 0;
#X connect 2 0 17 0;
#X connect 3 0 0 0;
#X connect 4 0 12 0;
#X connect 5 0 12 1;
#X connect 6 0 12 1;
#X connect 7 0 12 1;
#X connect 8 0 12 1;
#X connect 9 0 12 1;
#X connect 10 0 12 1;
#X connect 11 0 5 0;
#X connect 12 0 2 0;
#X connect 13 0 16 0;
#X connect 16 0 14 0;
#X connect 17 0 14 0;
#X connect 18 0 4 0;
#X connect 19 0 18 0;
