#N canvas 150 175 1161 780 12;
#X obj 78 496 *~ 0.5;
#X obj 76 530 dac~;
#X obj 78 451 vol~;
#X msg 312 21 0.5;
#X msg 363 21 0.4;
#X msg 418 19 0.3;
#X msg 467 20 0.2;
#X msg 509 20 0.1;
#X msg 561 19 0.01;
#X obj 430 81 loadbang;
#X obj 430 143 tabwrite~ \$0-scope;
#N canvas 159 167 648 535 (subpatch) 0;
#X array \$0-scope 2000 float 0;
#A color 0;
#A width 1;
#X coords 0 1 1999 -1 200 140 1;
#X restore 386 197 graph;
#X obj 430 112 metro 100;
#X obj 341 157 *~ 0.6;
#X obj 81 217 pdsaw~;
#X obj 83 51 sin~;
#X obj 83 118 *~ 2;
#X obj 84 160 +~;
#X floatatom 132 131 5 0 0 0 - - - 0;
#X obj 83 27 phasor~ 100;
#X obj 81 241 lop~ 15000;
#X floatatom 236 225 5 0 0 0 - - - 0;
#X floatatom 227 269 5 0 0 0 - - - 0;
#X obj 81 265 hip~ 10;
#X obj 85 74 vol~ 4;
#X connect 0 0 1 0;
#X connect 0 0 1 1;
#X connect 2 0 0 0;
#X connect 3 0 14 1;
#X connect 4 0 14 1;
#X connect 5 0 14 1;
#X connect 6 0 14 1;
#X connect 7 0 14 1;
#X connect 8 0 14 1;
#X connect 9 0 12 0;
#X connect 12 0 10 0;
#X connect 13 0 10 0;
#X connect 14 0 20 0;
#X connect 15 0 24 0;
#X connect 16 0 17 0;
#X connect 17 0 14 0;
#X connect 18 0 17 1;
#X connect 19 0 15 0;
#X connect 20 0 23 0;
#X connect 21 0 20 1;
#X connect 22 0 23 1;
#X connect 23 0 13 0;
#X connect 23 0 2 0;
#X connect 24 0 16 0;
