#N canvas 189 168 1161 780 12;
#X obj 92 650 *~ 0.5;
#X obj 90 684 dac~;
#X obj 92 605 vol~;
#X msg 420 169 0.5;
#X obj 259 464 loadbang;
#X obj 259 526 tabwrite~ \$0-scope;
#N canvas 159 167 648 535 (subpatch) 0;
#X array \$0-scope 2000 float 0;
#A color 0;
#A width 1;
#X coords 0 1 1999 -1 200 140 1;
#X restore 586 487 graph;
#X obj 259 495 metro 100;
#X obj 216 564 *~ 0.6;
#X floatatom 173 490 5 0 0 0 - - - 0;
#X obj 93 536 hip~ 10;
#X msg 692 169 0.025;
#X msg 639 169 0.055;
#X msg 577 169 0.11;
#X msg 528 169 0.185;
#X msg 475 169 0.29;
#X obj 78 193 vol~ 5;
#X msg 76 63 50;
#X msg 157 74 131;
#X obj 83 124 phasor~ 0;
#X text 420 143 sine;
#X text 475 143 saw1;
#X text 528 143 saw2;
#X text 577 143 saw3;
#X text 639 143 saw4;
#X text 692 143 saw5;
#X obj 101 370 pdsaw~;
#X obj 177 12 loadbang;
#X floatatom 359 339 5 0 0 0 - - - 0;
#X msg 191 108 0.75;
#X msg 247 115 0.25;
#X msg 211 147 0.5;
#X msg 267 149 0;
#X obj 82 162 cos~;
#X obj 609 281 hsl 162 19 0 127 0 0 empty empty empty -2 -10 0 12 #fcfcfc #000000 #000000 0 1;
#X floatatom 606 329 5 0 0 0 - - - 0;
#X obj 79 254 *~ 2;
#X listbox 938 279 20 0 0 0 - - - 0;
#X obj 83 312 +~;
#X obj 606 305 / 63.5;
#X connect 0 0 1 0;
#X connect 0 0 1 1;
#X connect 2 0 0 0;
#X connect 3 0 26 1;
#X connect 4 0 7 0;
#X connect 7 0 5 0;
#X connect 8 0 5 0;
#X connect 9 0 10 1;
#X connect 10 0 8 0;
#X connect 10 0 2 0;
#X connect 11 0 26 1;
#X connect 12 0 26 1;
#X connect 13 0 26 1;
#X connect 14 0 26 1;
#X connect 15 0 26 1;
#X connect 16 0 36 0;
#X connect 17 0 19 0;
#X connect 18 0 19 0;
#X connect 19 0 33 0;
#X connect 26 0 10 0;
#X connect 27 0 17 0;
#X connect 27 0 3 0;
#X connect 27 0 29 0;
#X connect 28 0 26 2;
#X connect 29 0 26 2;
#X connect 30 0 26 2;
#X connect 31 0 26 2;
#X connect 32 0 26 2;
#X connect 33 0 16 0;
#X connect 34 0 39 0;
#X connect 35 0 38 1;
#X connect 36 0 38 0;
#X connect 38 0 26 0;
#X connect 39 0 35 0;
