#N canvas 107 175 719 632 12;
#X obj 121 119 hsl 162 19 0 100 0 0 empty empty empty -2 -10 0 12 #fcfcfc #000000 #000000 0 1;
#X obj 100 119 tgl 19 0 empty empty empty 0 -10 0 12 #fcfcfc #000000 #000000 0 1;
#X floatatom 199 101 5 0 0 0 - - - 0;
#X obj 51 10 inlet~;
#X obj 51 553 outlet~;
#X obj 316 321 moses 0;
#X obj 48 481 *~;
#X msg 361 375 \$1 10;
#X obj 361 399 line~;
#X obj 361 351 / 100;
#X obj 325 20 loadbang;
#X obj 347 97 float \$1;
#X obj 299 217 t f b;
#X obj 76 50 loadbang;
#X obj 177 241 *;
#X obj 101 194 * -1;
#X obj 101 218 + 1;
#X obj 162 162 t f b;
#X obj 140 438 +~;
#X obj 140 355 inlet~;
#X text 168 100 min:;
#X obj 299 344 bng 19 250 50 0 empty empty empty 0 -10 0 12 #fcfcfc #000000 #000000;
#X floatatom 279 371 5 0 0 0 - - - 0;
#X obj 261 148 moses 0;
#X obj 278 178 moses 100;
#X text 291 479 vol~;
#X text 291 504 volume / mixer for VZ simulation;
#X text 291 529 creation argument: minimum volume (0-100) of left inlet;
#X text 291 554 right inlet: unity gain sum post fader;
#X text 253 100 ring;
#X msg 76 74 0;
#X connect 0 0 17 0;
#X connect 1 0 15 0;
#X connect 2 0 23 0;
#X connect 3 0 6 0;
#X connect 5 0 21 0;
#X connect 5 1 9 0;
#X connect 6 0 4 0;
#X connect 7 0 8 0;
#X connect 8 0 18 1;
#X connect 9 0 7 0;
#X connect 10 0 11 0;
#X connect 11 0 2 0;
#X connect 11 0 9 0;
#X connect 12 0 5 1;
#X connect 12 0 22 0;
#X connect 12 1 0 0;
#X connect 13 0 30 0;
#X connect 14 0 5 0;
#X connect 15 0 16 0;
#X connect 16 0 14 0;
#X connect 17 0 14 1;
#X connect 17 1 14 0;
#X connect 18 0 6 1;
#X connect 19 0 18 0;
#X connect 21 0 22 0;
#X connect 22 0 9 0;
#X connect 23 1 24 0;
#X connect 24 0 12 0;
#X connect 30 0 1 0;
#X coords 0 -1 1 1 185 38 1 100 100;
