#N canvas 150 175 587 409 12;
#X obj 121 119 hsl 162 19 0 100 0 0 empty empty empty -2 -10 0 12 #fcfcfc #000000 #000000 0 1;
#X obj 100 119 tgl 19 0 empty empty empty 0 -10 0 12 #fcfcfc #000000 #000000 0 1;
#X floatatom 248 100 5 0 0 0 - - - 0;
#X obj 11 12 inlet~;
#X obj 15 330 outlet~;
#X msg 84 31 \$1 10;
#X obj 84 56 line~;
#X obj 84 6 - 1;
#X obj 101 182 moses 0;
#X obj 17 302 *~;
#X msg 150 266 \$1 10;
#X obj 150 290 line~;
#X obj 150 242 / 100;
#X obj 11 58 *~;
#X obj 325 20 loadbang;
#X floatatom 247 12 5 0 0 0 - - - 0;
#X obj 347 97 float \$1;
#X text 186 100 minimum:;
#X connect 0 0 8 0;
#X connect 1 0 7 0;
#X connect 2 0 8 1;
#X connect 3 0 13 0;
#X connect 5 0 6 0;
#X connect 6 0 13 1;
#X connect 7 0 5 0;
#X connect 8 1 12 0;
#X connect 9 0 4 0;
#X connect 10 0 11 0;
#X connect 11 0 9 1;
#X connect 12 0 10 0;
#X connect 13 0 9 0;
#X connect 14 0 15 0;
#X connect 14 0 16 0;
#X connect 15 0 7 0;
#X connect 16 0 2 0;
#X connect 16 0 12 0;
#X coords 0 -1 1 1 185 38 1 100 100;
