#N canvas 558 90 912 758 12;
#X obj 113 665 *~ 0.5;
#X obj 111 699 dac~;
#X obj 114 615 vol~;
#X obj 280 479 loadbang;
#X obj 280 541 tabwrite~ \$0-scope;
#N canvas 159 167 648 535 (subpatch) 0;
#X array \$0-scope 2000 float 0;
#A color 0;
#A width 1;
#X coords 0 1 1999 -1 200 140 1;
#X restore 607 502 graph;
#X obj 280 510 metro 100;
#X obj 237 579 *~ 0.6;
#X floatatom 194 505 5 0 0 0 - - - 0;
#X obj 114 551 hip~ 10;
#X msg 97 78 50;
#X msg 43 82 131;
#X obj 138 26 loadbang;
#X obj 108 222 vol~ 5;
#X msg 156 72 0;
#X obj 104 139 vzphasor~;
#X obj 104 163 vzshaper~ 0;
#X obj 109 333 vzshaper~ 0;
#X msg 227 115 0;
#X msg 270 115 1;
#X msg 310 113 2;
#X msg 354 114 3;
#X msg 397 113 4;
#X msg 440 113 5;
#X msg 206 290 0;
#X msg 249 290 1;
#X msg 289 288 2;
#X msg 333 289 3;
#X msg 376 288 4;
#X msg 419 288 5;
#X connect 0 0 1 0;
#X connect 0 0 1 1;
#X connect 2 0 0 0;
#X connect 3 0 6 0;
#X connect 6 0 4 0;
#X connect 7 0 4 0;
#X connect 8 0 9 1;
#X connect 9 0 7 0;
#X connect 9 0 2 0;
#X connect 10 0 15 0;
#X connect 11 0 15 0;
#X connect 12 0 10 0;
#X connect 12 0 14 0;
#X connect 13 0 17 0;
#X connect 14 0 15 1;
#X connect 15 0 16 0;
#X connect 16 0 13 0;
#X connect 17 0 9 0;
#X connect 18 0 16 1;
#X connect 19 0 16 1;
#X connect 20 0 16 1;
#X connect 21 0 16 1;
#X connect 22 0 16 1;
#X connect 23 0 16 1;
#X connect 24 0 17 1;
#X connect 25 0 17 1;
#X connect 26 0 17 1;
#X connect 27 0 17 1;
#X connect 28 0 17 1;
#X connect 29 0 17 1;
