#N canvas 267 145 1426 726 12;
#X obj 576 129 sin~;
#X obj 576 100 phasor~ 50;
#X obj 553 667 dac~;
#X obj 557 626 *~ 0.5;
#X obj 557 450 vol~;
#X obj 842 408 loadbang;
#X obj 842 470 tabwrite~ \$0-scope;
#N canvas 159 167 648 535 (subpatch) 0;
#X array \$0-scope 2000 float 0;
#A color 0;
#A width 1;
#X coords 0 1 1999 -1 200 140 1;
#X restore 798 524 graph;
#X obj 842 439 metro 100;
#X obj 766 438 *~ 0.6;
#X floatatom 576 72 5 0 0 0 - - - 0;
#X obj 557 416 sin~;
#X obj 316 131 sin~;
#X obj 316 102 phasor~ 50;
#X obj 316 160 vol~;
#X floatatom 316 74 5 0 0 0 - - - 0;
#X obj 42 129 sin~;
#X obj 42 100 phasor~ 50;
#X obj 42 158 vol~;
#X floatatom 42 72 5 0 0 0 - - - 0;
#X obj 557 382 +~;
#X obj 576 158 vol~ 8;
#X obj 576 206 *~ 2;
#X obj 316 208 *~ 2;
#X obj 42 206 *~ 2;
#X text 40 39 M1;
#X text 316 40 M2;
#X text 575 42 M3 (always on);
#X text 627 403 M4 (shaper);
#X connect 0 0 21 0;
#X connect 1 0 0 0;
#X connect 3 0 2 0;
#X connect 3 0 2 1;
#X connect 4 0 3 0;
#X connect 5 0 8 0;
#X connect 8 0 6 0;
#X connect 9 0 6 0;
#X connect 10 0 1 0;
#X connect 11 0 9 0;
#X connect 11 0 4 0;
#X connect 12 0 14 0;
#X connect 13 0 12 0;
#X connect 14 0 23 0;
#X connect 15 0 13 0;
#X connect 16 0 18 0;
#X connect 17 0 16 0;
#X connect 18 0 24 0;
#X connect 19 0 17 0;
#X connect 20 0 11 0;
#X connect 21 0 22 0;
#X connect 22 0 20 0;
#X connect 23 0 20 0;
#X connect 24 0 20 0;
