#N canvas 189 168 1161 780 12;
#X obj 92 650 *~ 0.5;
#X obj 90 684 dac~;
#X obj 92 605 vol~;
#X obj 259 464 loadbang;
#X obj 259 526 tabwrite~ \$0-scope;
#N canvas 159 167 648 535 (subpatch) 0;
#X array \$0-scope 2000 float 0;
#A color 0;
#A width 1;
#X coords 0 1 1999 -1 200 140 1;
#X restore 586 487 graph;
#X obj 259 495 metro 100;
#X obj 216 564 *~ 0.6;
#X floatatom 173 490 5 0 0 0 - - - 0;
#X obj 93 536 hip~ 10;
#X msg 76 63 50;
#X msg 22 67 131;
#X obj 117 1 loadbang;
#X obj 85 163 vzsine~;
#X obj 175 164 vzsaw1~;
#X obj 263 161 vzsaw2~;
#X obj 345 160 vzsaw3~;
#X obj 431 163 vzsaw4~;
#X obj 512 164 vzsaw5~;
#X obj 86 220 vol~ 5;
#X obj 83 124 phasor~;
#X obj 89 310 vzsaw5~;
#X msg 135 57 0;
#X connect 0 0 1 0;
#X connect 0 0 1 1;
#X connect 2 0 0 0;
#X connect 3 0 6 0;
#X connect 6 0 4 0;
#X connect 7 0 4 0;
#X connect 8 0 9 1;
#X connect 9 0 7 0;
#X connect 9 0 2 0;
#X connect 10 0 20 0;
#X connect 11 0 20 0;
#X connect 12 0 10 0;
#X connect 12 0 22 0;
#X connect 13 0 19 0;
#X connect 19 0 21 0;
#X connect 20 0 13 0;
#X connect 20 0 18 0;
#X connect 20 0 17 0;
#X connect 20 0 16 0;
#X connect 20 0 15 0;
#X connect 20 0 14 0;
#X connect 21 0 9 0;
#X connect 22 0 20 1;
