#N canvas 824 135 478 358 12;
#X obj 52 87 sin~;
#X obj 52 62 phasor~ 50;
#X obj 65 212 dac~;
#X obj 53 123 vol~;
#X floatatom 51 21 5 0 0 0 - - - 0;
#X obj 51 181 *~ 0.5;
#X connect 0 0 3 0;
#X connect 1 0 0 0;
#X connect 3 0 5 0;
#X connect 4 0 1 0;
#X connect 5 0 2 0;
#X connect 5 0 2 1;
