#N canvas 0 25 1846 1027 12;
#X obj 570 714 *~ 0.5;
#X obj 570 748 dac~;
#X obj 571 664 vol~;
#X obj 692 551 loadbang;
#X obj 692 613 tabwrite~ \$0-scope;
#N canvas 159 167 648 535 (subpatch) 0;
#X array \$0-scope 2000 float 0;
#A color 0;
#A width 1;
#X coords 0 1 1999 -1 200 140 1;
#X restore 1073 601 graph;
#X obj 692 582 metro 100;
#X obj 629 533 *~ 0.6;
#X obj 570 470 hip~ 10;
#X msg 570 197 50;
#X obj 604 125 loadbang;
#X obj 570 325 vol~ 5;
#X msg 630 198 0;
#X obj 570 238 vzphasor~;
#X obj 570 262 vzshaper~ 0;
#X obj 570 432 vzshaper~ 0;
#X msg 693 214 0;
#X msg 736 214 1;
#X msg 776 214 2;
#X msg 820 214 3;
#X msg 863 214 4;
#X msg 906 214 5;
#X msg 672 389 0;
#X msg 715 389 1;
#X msg 755 389 2;
#X msg 799 389 3;
#X msg 842 389 4;
#X msg 885 389 5;
#X text 569 37 Casio VZ-1 synthesis emulation;
#X text 1120 941 Thanks to: Jari and Ed;
#X text 888 89 Working: SINE and SAW1 \, ... \, SAW5 waveforms. MIX and PHASE mode. Missing: NOISE1 \, NOISE2 waves and RING mode.;
#X msg 525 197 150;
#X msg 481 197 100;
#X connect 0 0 1 0;
#X connect 0 0 1 1;
#X connect 2 0 0 0;
#X connect 3 0 6 0;
#X connect 6 0 4 0;
#X connect 7 0 4 0;
#X connect 8 0 7 0;
#X connect 8 0 2 0;
#X connect 9 0 13 0;
#X connect 10 0 9 0;
#X connect 10 0 12 0;
#X connect 11 0 15 0;
#X connect 12 0 13 1;
#X connect 13 0 14 0;
#X connect 14 0 11 0;
#X connect 15 0 8 0;
#X connect 16 0 14 1;
#X connect 17 0 14 1;
#X connect 18 0 14 1;
#X connect 19 0 14 1;
#X connect 20 0 14 1;
#X connect 21 0 14 1;
#X connect 22 0 15 1;
#X connect 23 0 15 1;
#X connect 24 0 15 1;
#X connect 25 0 15 1;
#X connect 26 0 15 1;
#X connect 27 0 15 1;
#X connect 31 0 13 0;
#X connect 32 0 13 0;
