#N canvas 237 262 634 298 12;
#X obj 66 44 inlet;
#X obj 65 130 vzphasor~;
#X obj 65 154 vzshaper~ 0;
#X obj 65 178 outlet~;
#X obj 442 44 loadbang;
#X msg 412 98 0;
#X obj 214 44 inlet;
#X obj 387 44 inlet;
#X obj 267 44 loadbang;
#X obj 267 74 float \$2;
#X obj 116 44 loadbang;
#X obj 116 74 float \$1;
#X text 226 146 vzosc~;
#X text 226 173 creation arguments: frequency \, wave shape (0-5);
#X text 226 200 inlets: frequency \, wave shape \, reset;
#X obj 387 68 t b;
#X connect 0 0 1 0;
#X connect 1 0 2 0;
#X connect 2 0 3 0;
#X connect 4 0 5 0;
#X connect 5 0 1 1;
#X connect 6 0 2 1;
#X connect 7 0 15 0;
#X connect 8 0 9 0;
#X connect 9 0 2 1;
#X connect 10 0 11 0;
#X connect 11 0 1 0;
#X connect 15 0 5 0;
