#N canvas 237 262 450 300 12;
#X obj 35 21 inlet;
#X obj 35 75 vzphasor~;
#X obj 35 99 vzshaper~ 0;
#X obj 35 123 outlet~;
#X obj 147 21 loadbang;
#X msg 147 46 0;
#X obj 271 21 inlet;
#X obj 356 22 inlet;
#X connect 0 0 1 0;
#X connect 1 0 2 0;
#X connect 2 0 3 0;
#X connect 4 0 5 0;
#X connect 5 0 1 1;
#X connect 6 0 2 1;
#X connect 7 0 5 0;
