#N canvas 266 291 450 300 12;
#X obj 48 25 inlet~;
#X obj 144 28 inlet;
#X obj 49 141 outlet~;
#X obj 49 93 phasor~ \$1;
#X text 197 116 vzphasor~ is the same as regular phasor~ but corrected for vzshaper~ frequency shift., f 25;
#X obj 49 117 /~ 1.987;
#X connect 0 0 3 0;
#X connect 1 0 3 1;
#X connect 3 0 5 0;
#X connect 5 0 2 0;
