#N canvas 896 195 450 300 12;
#X obj 198 17 inlet;
#X obj 106 17 loadbang;
#X obj 34 17 inlet;
#X obj 34 79 vzphasor~;
#X obj 34 103 vzshaper~ 0;
#X obj 34 127 *~ -1;
#X obj 34 151 outlet~;
#X obj 290 17 inlet;
#X msg 106 42 0.75;
#X connect 0 0 4 1;
#X connect 1 0 8 0;
#X connect 2 0 3 0;
#X connect 3 0 4 0;
#X connect 4 0 5 0;
#X connect 5 0 6 0;
#X connect 7 0 8 0;
#X connect 8 0 3 1;
