#N canvas 1108 91 509 440 12;
#X obj 204 38 inlet;
#X obj 385 39 loadbang;
#X obj 130 38 inlet;
#X obj 131 169 vzphasor~;
#X obj 131 269 outlet~;
#X obj 327 39 inlet;
#X obj 329 153 * 3;
#X obj 131 241 *~ -1;
#X msg 356 95 0;
#X obj 329 177 osc~;
#X obj 131 217 +~;
#X obj 329 201 /~ 32;
#X obj 131 193 vzshaper~ 0;
#X obj 233 149 loadbang;
#X msg 191 130 0;
#X obj 232 174 float \$2;
#X obj 50 101 loadbang;
#X obj 50 125 float \$1;
#X text 50 320 vzringosc~, f 50;
#X text 50 341 creation arguments: frequency \, wave shape (0-5), f 50;
#X text 50 362 inlets: frequency \, wave shape \, reset, f 50;
#X obj 327 63 t b;
#X connect 0 0 12 1;
#X connect 1 0 8 0;
#X connect 2 0 3 0;
#X connect 2 0 6 0;
#X connect 3 0 12 0;
#X connect 5 0 21 0;
#X connect 6 0 9 0;
#X connect 7 0 4 0;
#X connect 8 0 9 1;
#X connect 8 0 14 0;
#X connect 9 0 11 0;
#X connect 10 0 7 0;
#X connect 11 0 10 1;
#X connect 12 0 10 0;
#X connect 13 0 15 0;
#X connect 14 0 3 1;
#X connect 15 0 12 1;
#X connect 16 0 17 0;
#X connect 17 0 3 0;
#X connect 21 0 8 0;
