#N canvas 244 250 784 354 12;
#X obj 27 11 inlet~;
#X obj 29 282 outlet~;
#X obj 124 56 inlet;
#X text 518 55 left inlet is phase, f 20;
#X text 522 82 right inlet and creation argument is an integer selecting
a VZ shape: 0 for sine \, 1 for saw1 \, ... \, 5 for saw5., f 21;
#X msg 124 177 0.5;
#X msg 161 177 0.29;
#X msg 201 177 0.185;
#X msg 254 177 0.11;
#X msg 311 177 0.055;
#X text 565 28 vzshaper~;
#X msg 366 177 0.025;
#X obj 124 116 sel 0 1 2 3 4 5;
#X obj 29 229 ipdshaper~ 0.5;
#X connect 0 0 13 0;
#X connect 2 0 12 0;
#X connect 5 0 13 1;
#X connect 6 0 13 1;
#X connect 7 0 13 1;
#X connect 8 0 13 1;
#X connect 9 0 13 1;
#X connect 11 0 13 1;
#X connect 12 0 5 0;
#X connect 12 1 6 0;
#X connect 12 2 7 0;
#X connect 12 3 8 0;
#X connect 12 4 9 0;
#X connect 12 5 11 0;
#X connect 13 0 1 0;
