#N canvas 244 250 784 354 12;
#X obj 27 11 inlet~;
#X obj 27 282 outlet~;
#X obj 123 11 inlet;
#X obj 272 13 loadbang;
#X text 518 55 left inlet is phase, f 20;
#X obj 141 63 float \$1;
#X text 522 82 right inlet and creation argument is an integer selecting a VZ shape: 0 for sine \, 1 for saw1 \, ... \, 5 for saw5., f 21;
#X obj 111 147 moses 1;
#X obj 187 147 moses 2;
#X obj 256 145 moses 3;
#X obj 330 141 moses 4;
#X obj 397 140 moses 5;
#X msg 111 171 0.5;
#X msg 187 176 0.29;
#X msg 254 174 0.185;
#X msg 331 173 0.11;
#X msg 388 172 0.055;
#X obj 29 229 ipdshaper~ 0;
#X text 565 28 vzshaper~;
#X msg 443 171 0.025;
#X connect 0 0 17 0;
#X connect 2 0 5 0;
#X connect 3 0 5 0;
#X connect 5 0 7 0;
#X connect 7 0 12 0;
#X connect 7 1 8 0;
#X connect 8 0 13 0;
#X connect 8 1 9 0;
#X connect 9 0 14 0;
#X connect 9 1 10 0;
#X connect 10 0 15 0;
#X connect 10 1 11 0;
#X connect 11 0 16 0;
#X connect 11 1 19 0;
#X connect 12 0 17 1;
#X connect 13 0 17 1;
#X connect 14 0 17 1;
#X connect 15 0 17 1;
#X connect 16 0 17 1;
#X connect 17 0 1 0;
#X connect 19 0 17 1;
